<svg xmlns="http://www.w3.org/2000/svg" width="1920" height="1080" viewBox="0 0 1920 1080">
  <defs>
    <linearGradient id="parchment" x1="0" y1="0" x2="1" y2="1">
      <stop offset="0%" stop-color="#f3ead3"/>
      <stop offset="100%" stop-color="#e7d8b8"/>
    </linearGradient>
    <filter id="softShadow" x="-20%" y="-20%" width="140%" height="140%">
      <feDropShadow dx="0" dy="8" stdDeviation="10" flood-color="#000" flood-opacity="0.18"/>
    </filter>
    <filter id="paperNoise" x="-10%" y="-10%" width="120%" height="120%">
      <feTurbulence type="fractalNoise" baseFrequency="0.9" numOctaves="2" stitchTiles="stitch" result="noise"/>
      <feColorMatrix in="noise" type="matrix"
        values="1 0 0 0 0
                0 1 0 0 0
                0 0 1 0 0
                0 0 0 0.08 0" result="alphaNoise"/>
      <feComposite in="alphaNoise" in2="SourceGraphic" operator="over"/>
    </filter>
  </defs>

  <rect x="0" y="0" width="1920" height="1080" fill="url(#parchment)"/>
  <rect x="36" y="36" width="1848" height="1008" rx="28" fill="none" stroke="#6b5a3a" stroke-width="10" opacity="0.55"/>
  <rect x="64" y="64" width="1792" height="952" rx="22" fill="none" stroke="#6b5a3a" stroke-width="4" opacity="0.35"/>

  <g filter="url(#softShadow)">
    <text x="960" y="120" text-anchor="middle" class="mc-title">Histoire-Géographie — Documents</text>
    <text x="960" y="160" text-anchor="middle" class="mc-sub">Carte de zone — placeholder (test pipeline V2)</text>
  </g>

  <path d="M 161 510 Q 161 510 532 411 Q 532 411 845 534 Q 845 534 1178 468 Q 1178 468 1489 556 Q 1489 556 1741 513" fill="none" stroke="#6b5a3a" stroke-width="10" opacity="0.14" stroke-linecap="round"/>
  <path d="M 161 510 Q 161 510 532 411 Q 532 411 845 534 Q 845 534 1178 468 Q 1178 468 1489 556 Q 1489 556 1741 513" fill="none" stroke="#6b5a3a" stroke-width="4" opacity="0.24" stroke-linecap="round"/>


  <g class="mc-slot" data-slot="1">
    <rect x="315.0" y="240.0" width="240" height="140" rx="18" class="mc-slot-rect"/>
    <text x="435.0" y="318.0" text-anchor="middle" class="mc-slot-text">Bloc 1</text>
  </g>

  <g class="mc-slot" data-slot="2">
    <rect x="639.0" y="262.0" width="240" height="140" rx="18" class="mc-slot-rect"/>
    <text x="759.0" y="340.0" text-anchor="middle" class="mc-slot-text">Bloc 2</text>
  </g>

  <g class="mc-slot" data-slot="3">
    <rect x="1004.0" y="287.0" width="240" height="140" rx="18" class="mc-slot-rect"/>
    <text x="1124.0" y="365.0" text-anchor="middle" class="mc-slot-text">Bloc 3</text>
  </g>

  <g class="mc-slot" data-slot="4">
    <rect x="1406.0" y="249.0" width="240" height="140" rx="18" class="mc-slot-rect"/>
    <text x="1526.0" y="327.0" text-anchor="middle" class="mc-slot-text">Bloc 4</text>
  </g>

  <g class="mc-slot" data-slot="5">
    <rect x="320.0" y="498.0" width="240" height="140" rx="18" class="mc-slot-rect"/>
    <text x="440.0" y="576.0" text-anchor="middle" class="mc-slot-text">Bloc 5</text>
  </g>

  <g class="mc-slot" data-slot="6">
    <rect x="627.0" y="459.0" width="240" height="140" rx="18" class="mc-slot-rect"/>
    <text x="747.0" y="537.0" text-anchor="middle" class="mc-slot-text">Bloc 6</text>
  </g>

  <g class="mc-slot" data-slot="7">
    <rect x="1065.0" y="477.0" width="240" height="140" rx="18" class="mc-slot-rect"/>
    <text x="1185.0" y="555.0" text-anchor="middle" class="mc-slot-text">Bloc 7</text>
  </g>

  <g class="mc-slot" data-slot="8">
    <rect x="1414.0" y="448.0" width="240" height="140" rx="18" class="mc-slot-rect"/>
    <text x="1534.0" y="526.0" text-anchor="middle" class="mc-slot-text">Bloc 8</text>
  </g>

  <g class="mc-slot" data-slot="9">
    <rect x="286.0" y="686.0" width="240" height="140" rx="18" class="mc-slot-rect"/>
    <text x="406.0" y="764.0" text-anchor="middle" class="mc-slot-text">Bloc 9</text>
  </g>

  <g class="mc-slot" data-slot="10">
    <rect x="642.0" y="653.0" width="240" height="140" rx="18" class="mc-slot-rect"/>
    <text x="762.0" y="731.0" text-anchor="middle" class="mc-slot-text">Bloc 10</text>
  </g>

  <g class="mc-slot" data-slot="11">
    <rect x="1021.0" y="658.0" width="240" height="140" rx="18" class="mc-slot-rect"/>
    <text x="1141.0" y="736.0" text-anchor="middle" class="mc-slot-text">Bloc 11</text>
  </g>

  <g class="mc-slot" data-slot="12">
    <rect x="1413.0" y="692.0" width="240" height="140" rx="18" class="mc-slot-rect"/>
    <text x="1533.0" y="770.0" text-anchor="middle" class="mc-slot-text">Bloc 12</text>
  </g>


  <text x="80" y="1010" class="mc-footer">Zone: hist:documents · 2025-12-31</text>

  <g filter="url(#paperNoise)"></g>

  <style>
    .mc-title {
      font: 700 56px system-ui, -apple-system, Segoe UI, Roboto, Arial, sans-serif;
      fill: #3a2f1f;
      letter-spacing: 0.5px;
    }
    .mc-sub {
      font: 500 22px system-ui, -apple-system, Segoe UI, Roboto, Arial, sans-serif;
      fill: #3a2f1f;
      opacity: 0.75;
    }
    .mc-slot-rect {
      fill: rgba(58, 47, 31, 0.04);
      stroke: rgba(58, 47, 31, 0.26);
      stroke-width: 4;
    }
    .mc-slot-text {
      font: 600 22px system-ui, -apple-system, Segoe UI, Roboto, Arial, sans-serif;
      fill: #3a2f1f;
      opacity: 0.8;
    }
    .mc-footer {
      font: 500 18px system-ui, -apple-system, Segoe UI, Roboto, Arial, sans-serif;
      fill: #3a2f1f;
      opacity: 0.55;
    }
  </style>
</svg>
