<svg xmlns="http://www.w3.org/2000/svg" width="1920" height="1080" viewBox="0 0 1920 1080">
  <defs>
    <linearGradient id="parchment" x1="0" y1="0" x2="1" y2="1">
      <stop offset="0%" stop-color="#f3ead3"/>
      <stop offset="100%" stop-color="#e7d8b8"/>
    </linearGradient>
    <filter id="softShadow" x="-20%" y="-20%" width="140%" height="140%">
      <feDropShadow dx="0" dy="8" stdDeviation="10" flood-color="#000" flood-opacity="0.18"/>
    </filter>
    <filter id="paperNoise" x="-10%" y="-10%" width="120%" height="120%">
      <feTurbulence type="fractalNoise" baseFrequency="0.9" numOctaves="2" stitchTiles="stitch" result="noise"/>
      <feColorMatrix in="noise" type="matrix"
        values="1 0 0 0 0
                0 1 0 0 0
                0 0 1 0 0
                0 0 0 0.08 0" result="alphaNoise"/>
      <feComposite in="alphaNoise" in2="SourceGraphic" operator="over"/>
    </filter>
  </defs>

  <rect x="0" y="0" width="1920" height="1080" fill="url(#parchment)"/>
  <rect x="36" y="36" width="1848" height="1008" rx="28" fill="none" stroke="#6b5a3a" stroke-width="10" opacity="0.55"/>
  <rect x="64" y="64" width="1792" height="952" rx="22" fill="none" stroke="#6b5a3a" stroke-width="4" opacity="0.35"/>

  <g filter="url(#softShadow)">
    <text x="960" y="120" text-anchor="middle" class="mc-title">Mathématiques — Proportionnalité</text>
    <text x="960" y="160" text-anchor="middle" class="mc-sub">Carte de zone — placeholder (test pipeline V2)</text>
  </g>

  <path d="M 194 523 Q 194 523 498 416 Q 498 416 857 509 Q 857 509 1171 477 Q 1171 477 1523 558 Q 1523 558 1748 500" fill="none" stroke="#6b5a3a" stroke-width="10" opacity="0.14" stroke-linecap="round"/>
  <path d="M 194 523 Q 194 523 498 416 Q 498 416 857 509 Q 857 509 1171 477 Q 1171 477 1523 558 Q 1523 558 1748 500" fill="none" stroke="#6b5a3a" stroke-width="4" opacity="0.24" stroke-linecap="round"/>


  <g class="mc-slot" data-slot="1">
    <rect x="252.0" y="245.0" width="240" height="140" rx="18" class="mc-slot-rect"/>
    <text x="372.0" y="323.0" text-anchor="middle" class="mc-slot-text">Bloc 1</text>
  </g>

  <g class="mc-slot" data-slot="2">
    <rect x="656.0" y="247.0" width="240" height="140" rx="18" class="mc-slot-rect"/>
    <text x="776.0" y="325.0" text-anchor="middle" class="mc-slot-text">Bloc 2</text>
  </g>

  <g class="mc-slot" data-slot="3">
    <rect x="1027.0" y="289.0" width="240" height="140" rx="18" class="mc-slot-rect"/>
    <text x="1147.0" y="367.0" text-anchor="middle" class="mc-slot-text">Bloc 3</text>
  </g>

  <g class="mc-slot" data-slot="4">
    <rect x="1423.0" y="252.0" width="240" height="140" rx="18" class="mc-slot-rect"/>
    <text x="1543.0" y="330.0" text-anchor="middle" class="mc-slot-text">Bloc 4</text>
  </g>

  <g class="mc-slot" data-slot="5">
    <rect x="314.0" y="499.0" width="240" height="140" rx="18" class="mc-slot-rect"/>
    <text x="434.0" y="577.0" text-anchor="middle" class="mc-slot-text">Bloc 5</text>
  </g>

  <g class="mc-slot" data-slot="6">
    <rect x="680.0" y="497.0" width="240" height="140" rx="18" class="mc-slot-rect"/>
    <text x="800.0" y="575.0" text-anchor="middle" class="mc-slot-text">Bloc 6</text>
  </g>

  <g class="mc-slot" data-slot="7">
    <rect x="1048.0" y="459.0" width="240" height="140" rx="18" class="mc-slot-rect"/>
    <text x="1168.0" y="537.0" text-anchor="middle" class="mc-slot-text">Bloc 7</text>
  </g>

  <g class="mc-slot" data-slot="8">
    <rect x="1404.0" y="442.0" width="240" height="140" rx="18" class="mc-slot-rect"/>
    <text x="1524.0" y="520.0" text-anchor="middle" class="mc-slot-text">Bloc 8</text>
  </g>

  <g class="mc-slot" data-slot="9">
    <rect x="314.0" y="666.0" width="240" height="140" rx="18" class="mc-slot-rect"/>
    <text x="434.0" y="744.0" text-anchor="middle" class="mc-slot-text">Bloc 9</text>
  </g>

  <g class="mc-slot" data-slot="10">
    <rect x="687.0" y="654.0" width="240" height="140" rx="18" class="mc-slot-rect"/>
    <text x="807.0" y="732.0" text-anchor="middle" class="mc-slot-text">Bloc 10</text>
  </g>

  <g class="mc-slot" data-slot="11">
    <rect x="1027.0" y="698.0" width="240" height="140" rx="18" class="mc-slot-rect"/>
    <text x="1147.0" y="776.0" text-anchor="middle" class="mc-slot-text">Bloc 11</text>
  </g>

  <g class="mc-slot" data-slot="12">
    <rect x="1396.0" y="670.0" width="240" height="140" rx="18" class="mc-slot-rect"/>
    <text x="1516.0" y="748.0" text-anchor="middle" class="mc-slot-text">Bloc 12</text>
  </g>


  <text x="80" y="1010" class="mc-footer">Zone: math:proportionnalite · 2025-12-31</text>

  <g filter="url(#paperNoise)"></g>

  <style>
    .mc-title {
      font: 700 56px system-ui, -apple-system, Segoe UI, Roboto, Arial, sans-serif;
      fill: #3a2f1f;
      letter-spacing: 0.5px;
    }
    .mc-sub {
      font: 500 22px system-ui, -apple-system, Segoe UI, Roboto, Arial, sans-serif;
      fill: #3a2f1f;
      opacity: 0.75;
    }
    .mc-slot-rect {
      fill: rgba(58, 47, 31, 0.04);
      stroke: rgba(58, 47, 31, 0.26);
      stroke-width: 4;
    }
    .mc-slot-text {
      font: 600 22px system-ui, -apple-system, Segoe UI, Roboto, Arial, sans-serif;
      fill: #3a2f1f;
      opacity: 0.8;
    }
    .mc-footer {
      font: 500 18px system-ui, -apple-system, Segoe UI, Roboto, Arial, sans-serif;
      fill: #3a2f1f;
      opacity: 0.55;
    }
  </style>
</svg>
