<svg xmlns="http://www.w3.org/2000/svg" width="1920" height="1080" viewBox="0 0 1920 1080">
  <defs>
    <linearGradient id="parchment" x1="0" y1="0" x2="1" y2="1">
      <stop offset="0%" stop-color="#f3ead3"/>
      <stop offset="100%" stop-color="#e7d8b8"/>
    </linearGradient>
    <filter id="softShadow" x="-20%" y="-20%" width="140%" height="140%">
      <feDropShadow dx="0" dy="8" stdDeviation="10" flood-color="#000" flood-opacity="0.18"/>
    </filter>
    <filter id="paperNoise" x="-10%" y="-10%" width="120%" height="120%">
      <feTurbulence type="fractalNoise" baseFrequency="0.9" numOctaves="2" stitchTiles="stitch" result="noise"/>
      <feColorMatrix in="noise" type="matrix"
        values="1 0 0 0 0
                0 1 0 0 0
                0 0 1 0 0
                0 0 0 0.08 0" result="alphaNoise"/>
      <feComposite in="alphaNoise" in2="SourceGraphic" operator="over"/>
    </filter>
  </defs>

  <rect x="0" y="0" width="1920" height="1080" fill="url(#parchment)"/>
  <rect x="36" y="36" width="1848" height="1008" rx="28" fill="none" stroke="#6b5a3a" stroke-width="10" opacity="0.55"/>
  <rect x="64" y="64" width="1792" height="952" rx="22" fill="none" stroke="#6b5a3a" stroke-width="4" opacity="0.35"/>

  <g filter="url(#softShadow)">
    <text x="960" y="120" text-anchor="middle" class="mc-title">Français — Grammaire</text>
    <text x="960" y="160" text-anchor="middle" class="mc-sub">Carte de zone — placeholder (test pipeline V2)</text>
  </g>

  <path d="M 156 505 Q 156 505 519 410 Q 519 410 862 508 Q 862 508 1188 480 Q 1188 480 1478 552 Q 1478 552 1776 502" fill="none" stroke="#6b5a3a" stroke-width="10" opacity="0.14" stroke-linecap="round"/>
  <path d="M 156 505 Q 156 505 519 410 Q 519 410 862 508 Q 862 508 1188 480 Q 1188 480 1478 552 Q 1478 552 1776 502" fill="none" stroke="#6b5a3a" stroke-width="4" opacity="0.24" stroke-linecap="round"/>


  <g class="mc-slot" data-slot="1">
    <rect x="301.0" y="272.0" width="240" height="140" rx="18" class="mc-slot-rect"/>
    <text x="421.0" y="350.0" text-anchor="middle" class="mc-slot-text">Bloc 1</text>
  </g>

  <g class="mc-slot" data-slot="2">
    <rect x="688.0" y="270.0" width="240" height="140" rx="18" class="mc-slot-rect"/>
    <text x="808.0" y="348.0" text-anchor="middle" class="mc-slot-text">Bloc 2</text>
  </g>

  <g class="mc-slot" data-slot="3">
    <rect x="1010.0" y="293.0" width="240" height="140" rx="18" class="mc-slot-rect"/>
    <text x="1130.0" y="371.0" text-anchor="middle" class="mc-slot-text">Bloc 3</text>
  </g>

  <g class="mc-slot" data-slot="4">
    <rect x="1395.0" y="286.0" width="240" height="140" rx="18" class="mc-slot-rect"/>
    <text x="1515.0" y="364.0" text-anchor="middle" class="mc-slot-text">Bloc 4</text>
  </g>

  <g class="mc-slot" data-slot="5">
    <rect x="321.0" y="494.0" width="240" height="140" rx="18" class="mc-slot-rect"/>
    <text x="441.0" y="572.0" text-anchor="middle" class="mc-slot-text">Bloc 5</text>
  </g>

  <g class="mc-slot" data-slot="6">
    <rect x="646.0" y="499.0" width="240" height="140" rx="18" class="mc-slot-rect"/>
    <text x="766.0" y="577.0" text-anchor="middle" class="mc-slot-text">Bloc 6</text>
  </g>

  <g class="mc-slot" data-slot="7">
    <rect x="1017.0" y="485.0" width="240" height="140" rx="18" class="mc-slot-rect"/>
    <text x="1137.0" y="563.0" text-anchor="middle" class="mc-slot-text">Bloc 7</text>
  </g>

  <g class="mc-slot" data-slot="8">
    <rect x="1414.0" y="450.0" width="240" height="140" rx="18" class="mc-slot-rect"/>
    <text x="1534.0" y="528.0" text-anchor="middle" class="mc-slot-text">Bloc 8</text>
  </g>

  <g class="mc-slot" data-slot="9">
    <rect x="248.0" y="675.0" width="240" height="140" rx="18" class="mc-slot-rect"/>
    <text x="368.0" y="753.0" text-anchor="middle" class="mc-slot-text">Bloc 9</text>
  </g>

  <g class="mc-slot" data-slot="10">
    <rect x="641.0" y="687.0" width="240" height="140" rx="18" class="mc-slot-rect"/>
    <text x="761.0" y="765.0" text-anchor="middle" class="mc-slot-text">Bloc 10</text>
  </g>

  <g class="mc-slot" data-slot="11">
    <rect x="1014.0" y="653.0" width="240" height="140" rx="18" class="mc-slot-rect"/>
    <text x="1134.0" y="731.0" text-anchor="middle" class="mc-slot-text">Bloc 11</text>
  </g>

  <g class="mc-slot" data-slot="12">
    <rect x="1408.0" y="646.0" width="240" height="140" rx="18" class="mc-slot-rect"/>
    <text x="1528.0" y="724.0" text-anchor="middle" class="mc-slot-text">Bloc 12</text>
  </g>


  <text x="80" y="1010" class="mc-footer">Zone: fr:grammaire · 2025-12-31</text>

  <g filter="url(#paperNoise)"></g>

  <style>
    .mc-title {
      font: 700 56px system-ui, -apple-system, Segoe UI, Roboto, Arial, sans-serif;
      fill: #3a2f1f;
      letter-spacing: 0.5px;
    }
    .mc-sub {
      font: 500 22px system-ui, -apple-system, Segoe UI, Roboto, Arial, sans-serif;
      fill: #3a2f1f;
      opacity: 0.75;
    }
    .mc-slot-rect {
      fill: rgba(58, 47, 31, 0.04);
      stroke: rgba(58, 47, 31, 0.26);
      stroke-width: 4;
    }
    .mc-slot-text {
      font: 600 22px system-ui, -apple-system, Segoe UI, Roboto, Arial, sans-serif;
      fill: #3a2f1f;
      opacity: 0.8;
    }
    .mc-footer {
      font: 500 18px system-ui, -apple-system, Segoe UI, Roboto, Arial, sans-serif;
      fill: #3a2f1f;
      opacity: 0.55;
    }
  </style>
</svg>
