<svg xmlns="http://www.w3.org/2000/svg" width="1920" height="1080" viewBox="0 0 1920 1080">
<rect width="1920" height="1080" fill="#2b5aa0"/>
<g opacity="0.10">
<line x1="0" y1="0" x2="0" y2="1080" stroke="#000" stroke-width="2"/>
<line x1="120" y1="0" x2="120" y2="1080" stroke="#000" stroke-width="2"/>
<line x1="240" y1="0" x2="240" y2="1080" stroke="#000" stroke-width="2"/>
<line x1="360" y1="0" x2="360" y2="1080" stroke="#000" stroke-width="2"/>
<line x1="480" y1="0" x2="480" y2="1080" stroke="#000" stroke-width="2"/>
<line x1="600" y1="0" x2="600" y2="1080" stroke="#000" stroke-width="2"/>
<line x1="720" y1="0" x2="720" y2="1080" stroke="#000" stroke-width="2"/>
<line x1="840" y1="0" x2="840" y2="1080" stroke="#000" stroke-width="2"/>
<line x1="960" y1="0" x2="960" y2="1080" stroke="#000" stroke-width="2"/>
<line x1="1080" y1="0" x2="1080" y2="1080" stroke="#000" stroke-width="2"/>
<line x1="1200" y1="0" x2="1200" y2="1080" stroke="#000" stroke-width="2"/>
<line x1="1320" y1="0" x2="1320" y2="1080" stroke="#000" stroke-width="2"/>
<line x1="1440" y1="0" x2="1440" y2="1080" stroke="#000" stroke-width="2"/>
<line x1="1560" y1="0" x2="1560" y2="1080" stroke="#000" stroke-width="2"/>
<line x1="1680" y1="0" x2="1680" y2="1080" stroke="#000" stroke-width="2"/>
<line x1="1800" y1="0" x2="1800" y2="1080" stroke="#000" stroke-width="2"/>
<line x1="1920" y1="0" x2="1920" y2="1080" stroke="#000" stroke-width="2"/>
<line x1="0" y1="0" x2="1920" y2="0" stroke="#000" stroke-width="2"/>
<line x1="0" y1="120" x2="1920" y2="120" stroke="#000" stroke-width="2"/>
<line x1="0" y1="240" x2="1920" y2="240" stroke="#000" stroke-width="2"/>
<line x1="0" y1="360" x2="1920" y2="360" stroke="#000" stroke-width="2"/>
<line x1="0" y1="480" x2="1920" y2="480" stroke="#000" stroke-width="2"/>
<line x1="0" y1="600" x2="1920" y2="600" stroke="#000" stroke-width="2"/>
<line x1="0" y1="720" x2="1920" y2="720" stroke="#000" stroke-width="2"/>
<line x1="0" y1="840" x2="1920" y2="840" stroke="#000" stroke-width="2"/>
<line x1="0" y1="960" x2="1920" y2="960" stroke="#000" stroke-width="2"/>
<line x1="0" y1="1080" x2="1920" y2="1080" stroke="#000" stroke-width="2"/>
</g>
<rect x="260" y="220" width="520" height="320" rx="28" fill="#1e3f73" opacity="0.85"/>
<rect x="260" y="220" width="520" height="320" rx="28" fill="none" stroke="#000" stroke-opacity="0.25" stroke-width="6"/>
<rect x="980" y="260" width="600" height="360" rx="28" fill="#1e3f73" opacity="0.85"/>
<rect x="980" y="260" width="600" height="360" rx="28" fill="none" stroke="#000" stroke-opacity="0.25" stroke-width="6"/>
<rect x="520" y="700" width="720" height="300" rx="28" fill="#1e3f73" opacity="0.85"/>
<rect x="520" y="700" width="720" height="300" rx="28" fill="none" stroke="#000" stroke-opacity="0.25" stroke-width="6"/>
<rect x="60" y="60" width="780" height="96" rx="18" fill="#000" opacity="0.25"/>
<text x="90" y="122" font-family="monospace" font-size="34" fill="#fff">MATH — Grandeurs & mesures (grandeurs_et_mesures)</text>
<text x="90" y="158" font-family="monospace" font-size="18" fill="#fff" opacity="0.85">placeholder zone map 1920×1080</text>
</svg>