<svg xmlns="http://www.w3.org/2000/svg" width="1920" height="1080" viewBox="0 0 1920 1080">
  <defs>
    <linearGradient id="parchment" x1="0" y1="0" x2="1" y2="1">
      <stop offset="0%" stop-color="#f3ead3"/>
      <stop offset="100%" stop-color="#e7d8b8"/>
    </linearGradient>
    <filter id="softShadow" x="-20%" y="-20%" width="140%" height="140%">
      <feDropShadow dx="0" dy="8" stdDeviation="10" flood-color="#000" flood-opacity="0.18"/>
    </filter>
    <filter id="paperNoise" x="-10%" y="-10%" width="120%" height="120%">
      <feTurbulence type="fractalNoise" baseFrequency="0.9" numOctaves="2" stitchTiles="stitch" result="noise"/>
      <feColorMatrix in="noise" type="matrix"
        values="1 0 0 0 0
                0 1 0 0 0
                0 0 1 0 0
                0 0 0 0.08 0" result="alphaNoise"/>
      <feComposite in="alphaNoise" in2="SourceGraphic" operator="over"/>
    </filter>
  </defs>

  <rect x="0" y="0" width="1920" height="1080" fill="url(#parchment)"/>
  <rect x="36" y="36" width="1848" height="1008" rx="28" fill="none" stroke="#6b5a3a" stroke-width="10" opacity="0.55"/>
  <rect x="64" y="64" width="1792" height="952" rx="22" fill="none" stroke="#6b5a3a" stroke-width="4" opacity="0.35"/>

  <g filter="url(#softShadow)">
    <text x="960" y="130" text-anchor="middle" class="mc-biome-title">Histoire-Géographie</text>
    <text x="960" y="170" text-anchor="middle" class="mc-biome-subtitle">Carte du biome — placeholder (test pipeline)</text>
  </g>

  <g transform="translate(1650,160)" opacity="0.65" filter="url(#softShadow)">
    <circle cx="0" cy="0" r="70" fill="none" stroke="#6b5a3a" stroke-width="4"/>
    <circle cx="0" cy="0" r="48" fill="none" stroke="#6b5a3a" stroke-width="2" opacity="0.7"/>
    <path d="M 0 -58 L 14 0 L 0 58 L -14 0 Z" fill="#6b5a3a" opacity="0.55"/>
    <text x="0" y="-82" text-anchor="middle" class="mc-compass-text">N</text>
  </g>

  <path d="M 460 383 C 815 405, 1055 405, 935 325 S 1443 353, 1443 353 M 414 748 C 810 678, 1090 678, 950 798 S 1506 770, 1506 770" fill="none" stroke="#6b5a3a" stroke-width="10" opacity="0.18" stroke-linecap="round"/>
  <path d="M 460 383 C 815 405, 1055 405, 935 325 S 1443 353, 1443 353 M 414 748 C 810 678, 1090 678, 950 798 S 1506 770, 1506 770" fill="none" stroke="#6b5a3a" stroke-width="4" opacity="0.28" stroke-linecap="round"/>


    <g class="mc-zone-node" data-zone="Méthodes">
      <circle cx="460" cy="383" r="90" class="mc-zone-circle"/>
      <circle cx="460" cy="383" r="72" class="mc-zone-ring"/>
      <text x="460" y="391" text-anchor="middle" class="mc-zone-text">Méthodes</text>
    </g>


    <g class="mc-zone-node" data-zone="Géographie">
      <circle cx="935" cy="325" r="90" class="mc-zone-circle"/>
      <circle cx="935" cy="325" r="72" class="mc-zone-ring"/>
      <text x="935" y="333" text-anchor="middle" class="mc-zone-text">Géographie</text>
    </g>


    <g class="mc-zone-node" data-zone="Repères">
      <circle cx="1443" cy="353" r="90" class="mc-zone-circle"/>
      <circle cx="1443" cy="353" r="72" class="mc-zone-ring"/>
      <text x="1443" y="361" text-anchor="middle" class="mc-zone-text">Repères</text>
    </g>


    <g class="mc-zone-node" data-zone="Documents">
      <circle cx="414" cy="748" r="90" class="mc-zone-circle"/>
      <circle cx="414" cy="748" r="72" class="mc-zone-ring"/>
      <text x="414" y="756" text-anchor="middle" class="mc-zone-text">Documents</text>
    </g>


    <g class="mc-zone-node" data-zone="Cartes">
      <circle cx="950" cy="798" r="90" class="mc-zone-circle"/>
      <circle cx="950" cy="798" r="72" class="mc-zone-ring"/>
      <text x="950" y="806" text-anchor="middle" class="mc-zone-text">Cartes</text>
    </g>


    <g class="mc-zone-node" data-zone="Méthode">
      <circle cx="1506" cy="770" r="90" class="mc-zone-circle"/>
      <circle cx="1506" cy="770" r="72" class="mc-zone-ring"/>
      <text x="1506" y="778" text-anchor="middle" class="mc-zone-text">Méthode</text>
    </g>


  <text x="80" y="1010" class="mc-footer">Pack biome: hist · 2025-12-31</text>

  <g filter="url(#paperNoise)"></g>

  <style>
    .mc-biome-title {
      font: 700 64px system-ui, -apple-system, Segoe UI, Roboto, Arial, sans-serif;
      fill: #3a2f1f;
      letter-spacing: 1px;
    }
    .mc-biome-subtitle {
      font: 500 22px system-ui, -apple-system, Segoe UI, Roboto, Arial, sans-serif;
      fill: #3a2f1f;
      opacity: 0.75;
    }
    .mc-zone-circle {
      fill: rgba(58, 47, 31, 0.06);
      stroke: rgba(58, 47, 31, 0.30);
      stroke-width: 6;
    }
    .mc-zone-ring {
      fill: none;
      stroke: rgba(58, 47, 31, 0.18);
      stroke-width: 3;
      stroke-dasharray: 10 10;
    }
    .mc-zone-text {
      font: 600 22px system-ui, -apple-system, Segoe UI, Roboto, Arial, sans-serif;
      fill: #3a2f1f;
      opacity: 0.85;
    }
    .mc-compass-text {
      font: 700 18px system-ui, -apple-system, Segoe UI, Roboto, Arial, sans-serif;
      fill: #3a2f1f;
    }
    .mc-footer {
      font: 500 18px system-ui, -apple-system, Segoe UI, Roboto, Arial, sans-serif;
      fill: #3a2f1f;
      opacity: 0.55;
    }
  </style>
</svg>
